<mxfile host="Electron" agent="Mozilla/5.0 (Windows NT 10.0; Win64; x64) AppleWebKit/537.36 (KHTML, like Gecko) draw.io/28.1.2 Chrome/138.0.7204.243 Electron/37.4.0 Safari/537.36" version="28.1.2">
  <diagram name="Page-1" id="e1GISlmbCQM0qry9imPq">
    <mxGraphModel dx="1042" dy="626" grid="1" gridSize="10" guides="1" tooltips="1" connect="1" arrows="1" fold="1" page="1" pageScale="1" pageWidth="850" pageHeight="1100" math="0" shadow="0">
      <root>
        <mxCell id="0" />
        <mxCell id="1" parent="0" />
        <mxCell id="FsQyzxPNZzEnnAwFn4nq-33" value="" style="group" vertex="1" connectable="0" parent="1">
          <mxGeometry x="260" y="370" width="140" height="120" as="geometry" />
        </mxCell>
        <mxCell id="FsQyzxPNZzEnnAwFn4nq-1" value="crm_cust_info" style="swimlane;fontStyle=0;childLayout=stackLayout;horizontal=1;startSize=30;horizontalStack=0;resizeParent=1;resizeParentMax=0;resizeLast=0;collapsible=1;marginBottom=0;whiteSpace=wrap;html=1;" vertex="1" parent="FsQyzxPNZzEnnAwFn4nq-33">
          <mxGeometry y="30" width="140" height="90" as="geometry" />
        </mxCell>
        <mxCell id="FsQyzxPNZzEnnAwFn4nq-2" value="cst_key" style="text;strokeColor=none;fillColor=none;align=left;verticalAlign=middle;spacingLeft=4;spacingRight=4;overflow=hidden;points=[[0,0.5],[1,0.5]];portConstraint=eastwest;rotatable=0;whiteSpace=wrap;html=1;" vertex="1" parent="FsQyzxPNZzEnnAwFn4nq-1">
          <mxGeometry y="30" width="140" height="30" as="geometry" />
        </mxCell>
        <mxCell id="FsQyzxPNZzEnnAwFn4nq-3" value="cst_id" style="text;strokeColor=none;fillColor=none;align=left;verticalAlign=middle;spacingLeft=4;spacingRight=4;overflow=hidden;points=[[0,0.5],[1,0.5]];portConstraint=eastwest;rotatable=0;whiteSpace=wrap;html=1;" vertex="1" parent="FsQyzxPNZzEnnAwFn4nq-1">
          <mxGeometry y="60" width="140" height="30" as="geometry" />
        </mxCell>
        <mxCell id="FsQyzxPNZzEnnAwFn4nq-26" value="Customer Information" style="text;html=1;align=center;verticalAlign=middle;whiteSpace=wrap;rounded=0;" vertex="1" parent="FsQyzxPNZzEnnAwFn4nq-33">
          <mxGeometry x="15" width="110" height="30" as="geometry" />
        </mxCell>
        <mxCell id="FsQyzxPNZzEnnAwFn4nq-34" value="" style="group" vertex="1" connectable="0" parent="1">
          <mxGeometry x="260" y="220" width="140" height="90" as="geometry" />
        </mxCell>
        <mxCell id="FsQyzxPNZzEnnAwFn4nq-6" value="crm_prd_info" style="swimlane;fontStyle=0;childLayout=stackLayout;horizontal=1;startSize=30;horizontalStack=0;resizeParent=1;resizeParentMax=0;resizeLast=0;collapsible=1;marginBottom=0;whiteSpace=wrap;html=1;" vertex="1" parent="FsQyzxPNZzEnnAwFn4nq-34">
          <mxGeometry y="30" width="140" height="60" as="geometry" />
        </mxCell>
        <mxCell id="FsQyzxPNZzEnnAwFn4nq-7" value="prd_key" style="text;strokeColor=none;fillColor=none;align=left;verticalAlign=middle;spacingLeft=4;spacingRight=4;overflow=hidden;points=[[0,0.5],[1,0.5]];portConstraint=eastwest;rotatable=0;whiteSpace=wrap;html=1;" vertex="1" parent="FsQyzxPNZzEnnAwFn4nq-6">
          <mxGeometry y="30" width="140" height="30" as="geometry" />
        </mxCell>
        <mxCell id="FsQyzxPNZzEnnAwFn4nq-27" value="Current &amp;amp; History Product Information" style="text;html=1;align=center;verticalAlign=middle;whiteSpace=wrap;rounded=0;" vertex="1" parent="FsQyzxPNZzEnnAwFn4nq-34">
          <mxGeometry x="15" width="110" height="30" as="geometry" />
        </mxCell>
        <mxCell id="FsQyzxPNZzEnnAwFn4nq-35" value="" style="group" vertex="1" connectable="0" parent="1">
          <mxGeometry x="30" y="290" width="140" height="120" as="geometry" />
        </mxCell>
        <mxCell id="FsQyzxPNZzEnnAwFn4nq-10" value="crm_sales_details" style="swimlane;fontStyle=0;childLayout=stackLayout;horizontal=1;startSize=30;horizontalStack=0;resizeParent=1;resizeParentMax=0;resizeLast=0;collapsible=1;marginBottom=0;whiteSpace=wrap;html=1;" vertex="1" parent="FsQyzxPNZzEnnAwFn4nq-35">
          <mxGeometry y="30" width="140" height="90" as="geometry" />
        </mxCell>
        <mxCell id="FsQyzxPNZzEnnAwFn4nq-11" value="sls_prd_key" style="text;strokeColor=none;fillColor=none;align=left;verticalAlign=middle;spacingLeft=4;spacingRight=4;overflow=hidden;points=[[0,0.5],[1,0.5]];portConstraint=eastwest;rotatable=0;whiteSpace=wrap;html=1;" vertex="1" parent="FsQyzxPNZzEnnAwFn4nq-10">
          <mxGeometry y="30" width="140" height="30" as="geometry" />
        </mxCell>
        <mxCell id="FsQyzxPNZzEnnAwFn4nq-12" value="sls.cust_id" style="text;strokeColor=none;fillColor=none;align=left;verticalAlign=middle;spacingLeft=4;spacingRight=4;overflow=hidden;points=[[0,0.5],[1,0.5]];portConstraint=eastwest;rotatable=0;whiteSpace=wrap;html=1;" vertex="1" parent="FsQyzxPNZzEnnAwFn4nq-10">
          <mxGeometry y="60" width="140" height="30" as="geometry" />
        </mxCell>
        <mxCell id="FsQyzxPNZzEnnAwFn4nq-28" value="Transactional Records &amp;amp; Orders" style="text;html=1;align=center;verticalAlign=middle;whiteSpace=wrap;rounded=0;" vertex="1" parent="FsQyzxPNZzEnnAwFn4nq-35">
          <mxGeometry x="15" width="110" height="30" as="geometry" />
        </mxCell>
        <mxCell id="FsQyzxPNZzEnnAwFn4nq-38" value="" style="group" vertex="1" connectable="0" parent="1">
          <mxGeometry x="580" y="460" width="140" height="90" as="geometry" />
        </mxCell>
        <mxCell id="FsQyzxPNZzEnnAwFn4nq-14" value="erp_cust_az12" style="swimlane;fontStyle=0;childLayout=stackLayout;horizontal=1;startSize=30;horizontalStack=0;resizeParent=1;resizeParentMax=0;resizeLast=0;collapsible=1;marginBottom=0;whiteSpace=wrap;html=1;" vertex="1" parent="FsQyzxPNZzEnnAwFn4nq-38">
          <mxGeometry y="30" width="140" height="60" as="geometry" />
        </mxCell>
        <mxCell id="FsQyzxPNZzEnnAwFn4nq-15" value="cid" style="text;strokeColor=none;fillColor=none;align=left;verticalAlign=middle;spacingLeft=4;spacingRight=4;overflow=hidden;points=[[0,0.5],[1,0.5]];portConstraint=eastwest;rotatable=0;whiteSpace=wrap;html=1;" vertex="1" parent="FsQyzxPNZzEnnAwFn4nq-14">
          <mxGeometry y="30" width="140" height="30" as="geometry" />
        </mxCell>
        <mxCell id="FsQyzxPNZzEnnAwFn4nq-30" value="&lt;span style=&quot;text-wrap-mode: nowrap;&quot;&gt;Extra Customer Information (Bithdate)&lt;/span&gt;" style="text;html=1;align=center;verticalAlign=middle;whiteSpace=wrap;rounded=0;" vertex="1" parent="FsQyzxPNZzEnnAwFn4nq-38">
          <mxGeometry x="7.5" width="125" height="30" as="geometry" />
        </mxCell>
        <mxCell id="FsQyzxPNZzEnnAwFn4nq-39" value="" style="group" vertex="1" connectable="0" parent="1">
          <mxGeometry x="580" y="220" width="140" height="220" as="geometry" />
        </mxCell>
        <mxCell id="FsQyzxPNZzEnnAwFn4nq-36" value="" style="group" vertex="1" connectable="0" parent="FsQyzxPNZzEnnAwFn4nq-39">
          <mxGeometry y="130" width="140" height="90" as="geometry" />
        </mxCell>
        <mxCell id="FsQyzxPNZzEnnAwFn4nq-18" value="erp_loc_a101" style="swimlane;fontStyle=0;childLayout=stackLayout;horizontal=1;startSize=30;horizontalStack=0;resizeParent=1;resizeParentMax=0;resizeLast=0;collapsible=1;marginBottom=0;whiteSpace=wrap;html=1;" vertex="1" parent="FsQyzxPNZzEnnAwFn4nq-36">
          <mxGeometry y="30" width="140" height="60" as="geometry" />
        </mxCell>
        <mxCell id="FsQyzxPNZzEnnAwFn4nq-19" value="cid" style="text;strokeColor=none;fillColor=none;align=left;verticalAlign=middle;spacingLeft=4;spacingRight=4;overflow=hidden;points=[[0,0.5],[1,0.5]];portConstraint=eastwest;rotatable=0;whiteSpace=wrap;html=1;" vertex="1" parent="FsQyzxPNZzEnnAwFn4nq-18">
          <mxGeometry y="30" width="140" height="30" as="geometry" />
        </mxCell>
        <mxCell id="FsQyzxPNZzEnnAwFn4nq-31" value="&lt;span style=&quot;text-wrap-mode: nowrap;&quot;&gt;Extra Customer Information (Country)&lt;/span&gt;" style="text;html=1;align=center;verticalAlign=middle;whiteSpace=wrap;rounded=0;" vertex="1" parent="FsQyzxPNZzEnnAwFn4nq-36">
          <mxGeometry x="7.5" width="125" height="30" as="geometry" />
        </mxCell>
        <mxCell id="FsQyzxPNZzEnnAwFn4nq-37" value="" style="group" vertex="1" connectable="0" parent="FsQyzxPNZzEnnAwFn4nq-39">
          <mxGeometry width="140" height="90" as="geometry" />
        </mxCell>
        <mxCell id="FsQyzxPNZzEnnAwFn4nq-22" value="erp_px_cat_g1v2" style="swimlane;fontStyle=0;childLayout=stackLayout;horizontal=1;startSize=30;horizontalStack=0;resizeParent=1;resizeParentMax=0;resizeLast=0;collapsible=1;marginBottom=0;whiteSpace=wrap;html=1;" vertex="1" parent="FsQyzxPNZzEnnAwFn4nq-37">
          <mxGeometry y="30" width="140" height="60" as="geometry" />
        </mxCell>
        <mxCell id="FsQyzxPNZzEnnAwFn4nq-23" value="id" style="text;strokeColor=none;fillColor=none;align=left;verticalAlign=middle;spacingLeft=4;spacingRight=4;overflow=hidden;points=[[0,0.5],[1,0.5]];portConstraint=eastwest;rotatable=0;whiteSpace=wrap;html=1;" vertex="1" parent="FsQyzxPNZzEnnAwFn4nq-22">
          <mxGeometry y="30" width="140" height="30" as="geometry" />
        </mxCell>
        <mxCell id="FsQyzxPNZzEnnAwFn4nq-32" value="&lt;span style=&quot;text-wrap-mode: nowrap;&quot;&gt;Product Categories&lt;/span&gt;" style="text;html=1;align=center;verticalAlign=middle;whiteSpace=wrap;rounded=0;" vertex="1" parent="FsQyzxPNZzEnnAwFn4nq-37">
          <mxGeometry x="7.5" width="125" height="30" as="geometry" />
        </mxCell>
        <mxCell id="FsQyzxPNZzEnnAwFn4nq-42" style="edgeStyle=orthogonalEdgeStyle;rounded=0;orthogonalLoop=1;jettySize=auto;html=1;entryX=1;entryY=0.5;entryDx=0;entryDy=0;" edge="1" parent="1" source="FsQyzxPNZzEnnAwFn4nq-19" target="FsQyzxPNZzEnnAwFn4nq-3">
          <mxGeometry relative="1" as="geometry" />
        </mxCell>
        <mxCell id="FsQyzxPNZzEnnAwFn4nq-44" style="edgeStyle=orthogonalEdgeStyle;rounded=0;orthogonalLoop=1;jettySize=auto;html=1;" edge="1" parent="1" source="FsQyzxPNZzEnnAwFn4nq-15" target="FsQyzxPNZzEnnAwFn4nq-3">
          <mxGeometry relative="1" as="geometry" />
        </mxCell>
        <mxCell id="FsQyzxPNZzEnnAwFn4nq-46" style="edgeStyle=orthogonalEdgeStyle;rounded=0;orthogonalLoop=1;jettySize=auto;html=1;entryX=0;entryY=0.5;entryDx=0;entryDy=0;" edge="1" parent="1" source="FsQyzxPNZzEnnAwFn4nq-12" target="FsQyzxPNZzEnnAwFn4nq-3">
          <mxGeometry relative="1" as="geometry" />
        </mxCell>
        <mxCell id="FsQyzxPNZzEnnAwFn4nq-48" style="edgeStyle=orthogonalEdgeStyle;rounded=0;orthogonalLoop=1;jettySize=auto;html=1;exitX=1;exitY=0.5;exitDx=0;exitDy=0;entryX=0;entryY=0.5;entryDx=0;entryDy=0;" edge="1" parent="1" source="FsQyzxPNZzEnnAwFn4nq-11" target="FsQyzxPNZzEnnAwFn4nq-7">
          <mxGeometry relative="1" as="geometry" />
        </mxCell>
        <mxCell id="FsQyzxPNZzEnnAwFn4nq-49" style="edgeStyle=orthogonalEdgeStyle;rounded=0;orthogonalLoop=1;jettySize=auto;html=1;entryX=0;entryY=0.5;entryDx=0;entryDy=0;" edge="1" parent="1" source="FsQyzxPNZzEnnAwFn4nq-7" target="FsQyzxPNZzEnnAwFn4nq-23">
          <mxGeometry relative="1" as="geometry" />
        </mxCell>
        <mxCell id="FsQyzxPNZzEnnAwFn4nq-50" value="" style="rounded=1;whiteSpace=wrap;html=1;fillColor=none;dashed=1;dashPattern=8 8;" vertex="1" parent="1">
          <mxGeometry x="10" y="200" width="430" height="360" as="geometry" />
        </mxCell>
        <mxCell id="FsQyzxPNZzEnnAwFn4nq-51" value="" style="rounded=1;whiteSpace=wrap;html=1;fillColor=none;dashed=1;dashPattern=8 8;" vertex="1" parent="1">
          <mxGeometry x="470" y="200" width="330" height="360" as="geometry" />
        </mxCell>
        <mxCell id="FsQyzxPNZzEnnAwFn4nq-52" value="&lt;font style=&quot;font-size: 30px; color: rgb(255, 255, 255);&quot;&gt;&lt;b&gt;CRM&lt;/b&gt;&lt;/font&gt;" style="rounded=1;whiteSpace=wrap;html=1;fillColor=#f0a30a;fontColor=#000000;strokeColor=#BD7000;gradientColor=#CC6600;" vertex="1" parent="1">
          <mxGeometry x="165" y="140" width="120" height="60" as="geometry" />
        </mxCell>
        <mxCell id="FsQyzxPNZzEnnAwFn4nq-54" value="&lt;font style=&quot;font-size: 30px;&quot;&gt;&lt;b&gt;ERP&lt;/b&gt;&lt;/font&gt;" style="rounded=1;whiteSpace=wrap;html=1;fillColor=light-dark(#FFF2CC,#666600);strokeColor=#d6b656;gradientColor=#ffd966;" vertex="1" parent="1">
          <mxGeometry x="580" y="140" width="120" height="60" as="geometry" />
        </mxCell>
      </root>
    </mxGraphModel>
  </diagram>
</mxfile>
